<?xml version="1.0" encoding="utf-8"?>
<svg width="72px" height="81px" viewBox="0 0 72 81" version="1.1" xmlns:xlink="http://www.w3.org/1999/xlink" xmlns="http://www.w3.org/2000/svg">
  <desc>Created with Lunacy</desc>
  <g id="noun_circles_1808496-copy-18">
    <path d="M15.7 31.4C24.3709 31.4 31.4 24.3709 31.4 15.7C31.4 7.02913 24.3709 0 15.7 0C7.02913 0 0 7.02913 0 15.7C0 24.3709 7.02913 31.4 15.7 31.4Z" transform="translate(14.699951 0)" id="Oval" fill="#066D9F" fill-rule="evenodd" stroke="none" />
    <path d="M8.6 17.2C13.3496 17.2 17.2 13.3496 17.2 8.6C17.2 3.85035 13.3496 0 8.6 0C3.85035 0 0 3.85035 0 8.6C0 13.3496 3.85035 17.2 8.6 17.2Z" transform="translate(0 27.09961)" id="Oval" fill="#000000" fill-rule="evenodd" stroke="none" />
    <path d="M17 34C26.3888 34 34 26.3888 34 17C34 7.61116 26.3888 0 17 0C7.61116 0 0 7.61116 0 17C0 26.3888 7.61116 34 17 34Z" transform="translate(37.100098 26.09961)" id="Oval" fill="#000000" fill-rule="evenodd" stroke="none" />
    <path d="M17.3 34.6C26.8545 34.6 34.6 26.8545 34.6 17.3C34.6 7.74547 26.8545 0 17.3 0C7.74547 0 0 7.74547 0 17.3C0 26.8545 7.74547 34.6 17.3 34.6Z" transform="translate(4.199951 46.09961)" id="Oval" fill="#F33437" fill-rule="evenodd" stroke="none" />
  </g>
</svg>