<?xml version="1.0" encoding="utf-8"?>
<svg width="241px" height="241px" viewBox="0 0 241 241" version="1.1" xmlns:xlink="http://www.w3.org/1999/xlink" xmlns="http://www.w3.org/2000/svg">
  <desc>Created with Lunacy</desc>
  <g id="noun_Logo_2765925">
    <path d="M126.967 0L126.967 11.7718C124.444 11.7718 121.922 11.7718 120.24 11.7718C117.718 11.7718 115.195 11.7718 112.673 11.7718L112.673 0C115.195 0 117.718 0 120.24 0C121.922 0 124.444 0 126.967 0ZM150.511 3.36336C154.715 5.04504 158.919 5.88589 163.964 7.56757L159.76 19.3393C155.556 17.6577 151.351 15.976 146.306 14.2943L150.511 3.36336ZM184.985 18.4985C188.348 21.021 192.553 24.3844 195.916 26.9069L189.189 36.1562C185.826 33.6336 181.622 30.2703 178.258 27.7477L184.985 18.4985ZM212.733 43.7237C216.096 47.0871 218.619 51.2913 221.141 54.6547L211.892 62.2222C209.369 58.018 206.006 53.8138 203.483 50.4505L212.733 43.7237ZM232.072 76.5165C233.754 80.7207 235.435 84.9249 236.276 89.97L225.345 93.3333C223.664 88.2883 222.823 84.0841 221.141 79.8799L232.072 76.5165ZM239.64 112.673C240.48 115.195 240.48 117.718 240.48 120.24C240.48 121.922 240.48 124.444 239.64 126.967L228.709 126.967C228.709 124.444 228.709 121.922 228.709 120.24C228.709 117.718 228.709 115.195 227.868 112.673L239.64 112.673ZM236.276 150.51C235.435 154.715 233.754 159.76 232.072 163.964L221.141 159.76C222.823 155.556 223.664 151.351 225.345 147.147L236.276 150.51ZM221.141 184.985C218.619 188.348 216.096 192.553 212.733 195.916L203.483 189.189C206.847 185.826 209.369 181.622 211.892 178.258L221.141 184.985ZM195.916 212.733C192.553 216.096 188.348 218.619 184.985 221.141L178.258 211.892C181.622 209.369 185.826 206.847 189.189 203.483L195.916 212.733ZM163.964 232.072C159.76 233.754 154.715 235.435 150.51 236.276L147.147 225.345C151.351 223.664 155.556 222.823 160.601 221.141L163.964 232.072ZM126.967 239.64C124.444 240.48 121.922 240.48 120.24 240.48C117.718 240.48 115.195 240.48 112.673 239.64L112.673 228.709C115.195 228.709 117.718 228.709 120.24 228.709C121.922 228.709 124.444 228.709 126.967 227.868L126.967 239.64ZM89.97 236.276C84.9249 235.435 80.7207 233.754 76.5165 232.072L79.8799 221.141C84.0841 222.823 88.2883 223.664 93.3333 225.345L89.97 236.276ZM55.4955 221.141C51.2913 218.619 47.0871 216.096 43.7237 212.733L50.4505 203.483C53.8138 206.847 58.018 209.369 62.2222 211.892L55.4955 221.141ZM26.9069 195.916C24.3844 192.553 21.021 189.189 18.4985 184.985L28.5886 178.258C31.1111 181.622 33.6336 185.826 36.1562 189.189L26.9069 195.916ZM8.40841 163.964C5.88589 159.76 5.04504 154.715 3.36336 150.51L15.1351 147.147C15.976 151.351 17.6577 155.556 19.3393 159.76L8.40841 163.964ZM0 126.967C0 124.444 0 122.763 0 120.24C0 117.718 0 115.195 0 112.673L11.7718 112.673C11.7718 115.195 11.7718 117.718 11.7718 120.24C11.7718 122.763 11.7718 124.444 11.7718 126.967L0 126.967ZM3.36336 89.97C5.04504 84.9249 5.88589 80.7207 8.40841 76.5165L19.3393 79.8799C17.6577 84.0841 15.976 88.2883 15.1351 93.3333L3.36336 89.97ZM18.4985 55.4955C21.021 51.2913 24.3844 47.0871 26.9069 43.7237L36.1562 50.4505C33.6336 54.6547 30.2703 58.018 27.7477 62.2222L18.4985 55.4955ZM43.7237 26.9069C47.0871 24.3844 51.2913 21.021 55.4955 18.4985L62.2222 28.5886C58.018 31.1111 53.8138 33.6336 50.4505 36.1562L43.7237 26.9069ZM75.6757 8.40841C80.7207 6.72673 84.9249 5.04504 89.1291 3.36336L93.3333 15.1351C88.2883 15.976 84.0841 17.6577 79.8799 19.3393L75.6757 8.40841Z" id="Shape" fill="#066D9F" fill-rule="evenodd" stroke="none" />
    <path d="M111.832 0L111.832 15.976C109.309 15.1351 106.787 15.1351 105.105 15.1351C102.583 15.1351 100.06 15.1351 97.5375 15.976L97.5375 0C100.06 0 102.583 0 105.105 0C106.787 0 109.309 0 111.832 0ZM125.285 17.6577L130.33 2.52252C135.375 4.2042 139.58 5.04504 143.784 7.56757L138.739 21.8619C134.535 20.1802 130.33 19.3393 125.285 17.6577ZM151.351 28.5886L160.601 15.976C164.805 18.4985 168.168 21.021 172.372 24.3844L163.123 36.997C158.919 33.6336 155.556 31.1111 151.351 28.5886ZM172.372 47.0871L185.826 36.997C188.348 41.2012 190.871 44.5646 193.393 48.7688L180.781 58.018C178.258 53.8138 175.736 50.4505 172.372 47.0871ZM187.508 70.6306L202.643 65.5856C204.324 69.7898 206.006 74.8348 206.847 79.039L191.712 84.0841C190.871 79.039 189.189 74.8348 187.508 70.6306ZM194.234 97.5375L209.369 97.5375C210.21 100.06 210.21 102.583 210.21 105.105C210.21 106.787 210.21 109.309 209.369 111.832L194.234 111.832C194.234 109.309 194.234 106.787 194.234 105.105C194.234 102.583 194.234 100.06 194.234 97.5375ZM191.712 125.285L206.847 130.33C206.006 135.375 204.324 139.58 202.643 143.784L187.508 138.739C189.189 134.535 190.871 130.33 191.712 125.285ZM180.781 151.351L194.234 160.601C191.712 164.805 188.348 168.168 185.826 172.372L173.213 163.123C175.736 158.919 178.258 155.556 180.781 151.351ZM163.123 172.372L172.372 185.826C169.009 188.348 164.805 191.712 160.601 194.234L151.351 180.781C155.556 178.258 158.919 175.736 163.123 172.372ZM138.739 187.508L143.784 202.643C139.58 204.324 135.375 206.006 130.33 206.847L126.126 191.712C130.33 190.871 134.535 189.189 138.739 187.508ZM111.832 194.234L111.832 209.369C109.309 210.21 106.787 210.21 105.105 210.21C102.583 210.21 100.06 210.21 97.5375 209.369L97.5375 194.234C100.06 194.234 102.583 194.234 105.105 194.234C106.787 194.234 109.309 194.234 111.832 194.234ZM84.0841 191.712L79.039 206.847C74.8348 206.006 69.7898 204.324 65.5856 202.643L70.6306 187.508C74.8348 189.189 79.039 190.871 84.0841 191.712ZM58.018 180.781L48.7688 194.234C44.5646 191.712 41.2012 188.348 37.8378 185.826L47.0871 172.372C50.4504 175.736 53.8138 178.258 58.018 180.781ZM36.997 163.123L24.3844 172.372C21.021 169.009 18.4985 164.805 15.976 160.601L28.5886 151.351C31.1111 155.556 33.6336 159.76 36.997 163.123ZM21.8619 138.739L7.56757 143.784C5.88589 139.58 4.2042 135.375 2.52252 130.33L17.6577 125.285C19.3393 130.33 20.1802 134.535 21.8619 138.739ZM15.976 111.832L0 111.832C0 109.309 0 107.628 0 105.105C0 102.583 0 100.06 0 97.5375L15.976 97.5375C15.1351 100.06 15.1351 102.583 15.1351 105.105C15.1351 107.628 15.1351 109.309 15.976 111.832ZM17.6577 84.0841L2.52252 79.039C4.2042 74.8348 5.88589 69.7898 7.56757 65.5856L21.8619 70.6306C20.1802 74.8348 19.3393 79.039 17.6577 84.0841ZM28.5886 58.018L15.976 48.7688C18.4985 44.5646 21.021 41.2012 24.3844 37.8378L36.997 47.0871C33.6336 50.4504 31.1111 53.8138 28.5886 58.018ZM47.0871 36.997L37.8378 24.3844C41.2012 21.021 44.5646 18.4985 48.7688 15.976L58.018 28.5886C53.8138 31.1111 50.4504 33.6336 47.0871 36.997ZM70.6306 22.7027L65.5856 7.56757C69.7898 5.88589 73.994 4.2042 79.039 2.52252L84.0841 17.6577C79.039 19.3393 74.8348 20.1802 70.6306 22.7027Z" transform="translate(15.135254 15.135254)" id="Shape" fill="#000000" fill-rule="evenodd" stroke="none" />
    <path d="M81.5616 0L81.5616 18.4985L81.5616 18.4985C83.2432 18.4985 84.0841 18.4985 84.9249 18.4985L90.8108 1.68168C95.015 2.52252 100.06 4.2042 104.264 5.88589L98.3784 23.5435L98.3784 23.5435C100.06 23.5435 100.901 24.3844 101.742 25.2252L112.673 10.0901C116.877 12.6126 120.24 15.1351 123.604 18.4985L113.514 33.6336L113.514 33.6336C114.354 34.4745 115.195 35.3153 116.036 36.1562L130.33 25.2252C133.694 28.5886 136.216 32.7928 138.739 36.1562L124.444 47.0871L124.444 47.0871C124.444 48.7688 125.285 49.6096 126.126 50.4505L142.943 44.5646C144.625 48.7688 146.306 53.8138 147.147 58.018L130.33 63.9039L130.33 63.9039C130.33 65.5856 130.33 66.4264 131.171 67.2673L148.829 67.2673C148.829 69.7898 148.829 72.3123 148.829 74.8348C148.829 76.5165 148.829 79.039 148.829 81.5616L130.33 81.5616L130.33 81.5616C130.33 83.2432 130.33 84.0841 130.33 84.9249L147.147 90.8108C146.306 95.8559 144.625 100.06 142.943 104.264L126.126 98.3784L125.285 99.2192C125.285 100.06 124.444 100.901 124.444 101.742L138.739 112.673C136.216 116.877 133.694 120.24 130.33 123.604L116.036 113.514L116.036 113.514C115.195 114.354 114.354 115.195 113.514 116.036L123.604 130.33C120.24 133.694 116.877 136.216 112.673 138.739L101.742 124.444L101.742 124.444C100.901 124.444 100.06 125.285 98.3784 126.126L104.264 142.943C100.06 144.625 95.8559 146.306 90.8108 147.147L84.9249 130.33L84.9249 130.33C84.0841 130.33 82.4024 130.33 81.5616 131.171L81.5616 148.829C79.039 148.829 76.5165 148.829 74.8348 148.829C72.3123 148.829 69.7898 148.829 67.2673 148.829L67.2673 130.33L67.2673 130.33C66.4264 130.33 64.7447 130.33 63.9039 130.33L58.018 147.147C53.8138 146.306 49.6096 144.625 44.5646 142.943L50.4505 126.126L50.4505 126.126C49.6096 125.285 47.9279 124.444 47.0871 124.444L36.1562 138.739C32.7928 136.216 28.5886 133.694 25.2252 130.33L36.1562 116.036L35.3153 116.036C34.4745 115.195 33.6336 114.354 33.6336 113.514L18.4985 123.604C15.1351 120.24 12.6126 116.877 10.0901 112.673L25.2252 101.742L25.2252 101.742C24.3844 100.901 23.5435 100.06 23.5435 98.3784L5.88589 104.264C4.2042 100.06 2.52252 95.8559 1.68168 90.8108L19.3393 84.9249L18.4985 84.9249C18.4985 84.0841 18.4985 82.4024 18.4985 81.5616L0 81.5616C0 79.039 0 77.3574 0 74.8348C0 72.3123 0 69.7898 0 67.2673L18.4985 67.2673L18.4985 67.2673C18.4985 66.4264 18.4985 64.7447 18.4985 63.9039L1.68168 58.018C2.52252 53.8138 4.2042 48.7688 5.88589 44.5646L23.5435 50.4505L23.5435 50.4505C23.5435 49.6096 24.3844 47.9279 25.2252 47.0871L10.0901 36.997C12.6126 32.7928 15.1351 28.5886 18.4985 25.2252L32.7928 36.1562L33.6336 35.3153C34.4745 34.4745 35.3153 33.6336 36.1562 32.7928L25.2252 18.4985C28.5886 15.1351 32.7928 12.6126 36.1562 10.0901L47.0871 25.2252L47.0871 25.2252C48.7688 24.3844 49.6096 23.5435 50.4505 23.5435L44.5646 5.88589C48.7688 4.2042 53.8138 2.52252 58.018 1.68168L63.9039 19.3393L63.9039 18.4985C65.5856 18.4985 66.4264 18.4985 67.2673 18.4985L67.2673 0C69.7898 0 72.3123 0 74.8348 0C76.5165 0 79.039 0 81.5616 0Z" transform="translate(45.405518 45.405518)" id="Path" fill="#67C7EC" fill-rule="evenodd" stroke="none" />
  </g>
</svg>