<?xml version="1.0" encoding="utf-8"?>
<svg width="226px" height="57px" viewBox="0 0 226 57" version="1.1" xmlns:xlink="http://www.w3.org/1999/xlink" xmlns="http://www.w3.org/2000/svg">
  <desc>Created with Lunacy</desc>
  <g id="Group-6">
    <g id="Lorem-Ipsum" transform="translate(64.67993 11.880005)">
      <g id="Lorem" fill="#086EA0">
        <path d="M2.65289 26.2047L13.9277 26.2047L13.9277 23.4571L5.56295 23.4571L5.56295 7.07953L2.65289 7.07953L2.65289 26.2047ZM22.1029 26.4619C26.177 26.4619 28.9111 23.254 28.9111 19.4101C28.9111 15.5796 26.177 12.4259 22.1029 12.4259C18.0288 12.4259 15.3083 15.5796 15.3083 19.4101C15.3083 23.2676 18.0288 26.4619 22.1029 26.4619ZM34.6229 26.2047L31.9294 26.2047L31.9294 12.6831L34.65 12.6831L34.65 15.1465C35.2591 13.3463 36.9104 12.4259 38.4669 12.4259C39.3061 12.4259 40.1859 12.6966 40.8085 13.2922L39.5362 15.5931C39.0895 15.3089 38.5752 15.1465 38.0473 15.1465C36.4096 15.1465 34.6229 16.5812 34.6229 20.1004L34.6229 26.2047ZM48.3746 26.4619C50.6079 26.4619 52.3134 25.7039 53.8022 24.0797L51.8802 22.3878C50.838 23.5112 49.7417 23.9173 48.3882 23.9173C46.0601 23.9173 44.8961 22.5096 44.6525 20.3169L54.1677 20.3169C54.2218 20.1274 54.276 19.5725 54.276 19.0581C54.276 16.1481 52.7871 12.4259 48.1445 12.4259C43.7862 12.4259 41.7018 15.8774 41.7018 19.5048C41.7018 23.2134 43.908 26.4619 48.3746 26.4619ZM60.1773 26.2047L57.3755 26.2047L57.362 12.6831L60.0555 12.6831L60.0555 14.5915C60.8947 13.0079 62.3294 12.4259 63.8589 12.4259C65.5372 12.4259 67.175 13.1162 67.9059 15.0111C68.8939 13.1839 70.5182 12.4259 72.2777 12.4259C75.648 12.4259 77.0692 15.0923 77.0692 18.1513L77.0692 26.2047L74.2674 26.2047L74.2674 18.5032C74.2674 16.4594 73.6448 15.0382 71.7228 15.0382C69.8008 15.0382 68.6232 16.5947 68.6232 18.5844L68.6232 26.2047L65.8215 26.2047L65.8215 18.3002C65.8215 16.4188 65.1718 15.0382 63.3039 15.0382C61.3549 15.0382 60.1773 16.5947 60.1773 18.5844L60.1773 26.2047ZM44.6525 18.2866C44.9367 16.2564 46.006 14.781 48.1175 14.781C49.9853 14.781 51.1629 15.9045 51.4336 17.4339Q51.5351 17.84 51.5148 18.2866L44.6525 18.2866ZM22.1029 24.0391C19.4636 24.0391 18.2183 21.9005 18.2183 19.4101C18.2183 16.9331 19.4636 14.8487 22.1029 14.8487C24.7423 14.8487 26.001 16.9467 26.001 19.4101C26.001 21.887 24.7423 24.0391 22.1029 24.0391Z" />
      </g>
      <g id="Ipsum">
        <path d="M87.2476 26.2047L88.5741 26.2047L92.9865 7.07953L91.6465 7.07953L87.2476 26.2047ZM93 31.8083L94.3265 31.8083L96.465 22.645C96.7628 24.9053 98.4006 26.3942 100.81 26.3942C104.397 26.3942 107.158 23.3623 108.051 19.586C108.931 15.6338 107.523 12.4936 103.896 12.4936C101.554 12.4936 99.2533 13.9013 97.9268 16.1752L98.739 12.6831L97.4125 12.6831L93 31.8083ZM120.192 21.684C120.192 24.4993 117.688 26.3942 114.616 26.3942C111.963 26.3942 110.19 24.9324 109.933 22.8615L111.056 22.4961C111.259 24.1338 112.518 25.2843 114.683 25.2843C117.038 25.2843 118.92 23.8631 118.92 21.8464C118.92 18.5573 112.017 20.4793 112.017 16.703C112.017 14.2126 114.386 12.4936 117.323 12.4936C119.448 12.4936 120.869 13.5493 121.383 15.336L120.3 15.7691C119.921 14.4291 118.893 13.5493 117.187 13.5493C115.035 13.5493 113.276 14.7134 113.276 16.4594C113.276 19.3965 120.192 17.6911 120.192 21.684ZM139.412 26.2047L138.126 26.2047L141.226 12.6831L142.471 12.6831L141.875 15.2142C142.999 13.4005 144.731 12.4936 146.667 12.4936C148.833 12.4936 150.159 13.5629 150.2 15.6879C151.391 13.5764 153.299 12.4936 155.411 12.4936C158.618 12.4936 159.539 14.754 158.7 18.422L156.913 26.2047L155.627 26.2047L157.414 18.4761C158.145 15.2954 157.509 13.6982 155.045 13.6982C152.609 13.6982 150.606 15.4984 150.024 18.043L148.156 26.2047L146.883 26.2047L148.805 17.84C149.415 15.1871 148.67 13.6982 146.301 13.6982C143.865 13.6982 141.862 15.4984 141.28 18.043L139.412 26.2047ZM127.461 26.3942C129.369 26.3942 131.169 25.4603 132.36 23.7007L131.765 26.2047L133.037 26.2047L136.15 12.6831L134.864 12.6831L132.996 20.8313C132.374 23.5518 130.371 25.1896 127.907 25.1896C125.539 25.1896 124.659 23.7142 125.295 21.0207L127.203 12.6831L125.931 12.6831L123.941 21.3456C123.332 24.2963 124.402 26.3942 127.461 26.3942ZM100.688 25.2031C97.7238 25.2031 96.3026 22.7803 97.0606 19.586C97.8186 16.2158 100.458 13.6982 103.49 13.6982C106.468 13.6982 107.537 16.1481 106.792 19.3424C106.048 22.6585 103.72 25.2031 100.688 25.2031Z" />
      </g>
    </g>
    <g id="noun_Logo_2765925">
      <path d="M29.9279 0L29.9279 2.77477C29.3333 2.77477 28.7387 2.77477 28.3423 2.77477C27.7477 2.77477 27.1532 2.77477 26.5586 2.77477L26.5586 0C27.1532 0 27.7477 0 28.3423 0C28.7387 0 29.3333 0 29.9279 0ZM35.4775 0.792793C36.4685 1.18919 37.4595 1.38739 38.6487 1.78378L37.6577 4.55856C36.6667 4.16216 35.6757 3.76577 34.4865 3.36937L35.4775 0.792793ZM43.6036 4.36036C44.3964 4.95495 45.3874 5.74775 46.1802 6.34234L44.5946 8.52252C43.8018 7.92793 42.8108 7.13514 42.018 6.54054L43.6036 4.36036ZM50.1441 10.3063C50.9369 11.0991 51.5315 12.0901 52.1261 12.8829L49.9459 14.6667C49.3513 13.6757 48.5586 12.6847 47.964 11.8919L50.1441 10.3063ZM54.7027 18.036C55.0991 19.027 55.4955 20.018 55.6937 21.2072L53.1171 22C52.7207 20.8108 52.5225 19.8198 52.1261 18.8288L54.7027 18.036ZM56.4865 26.5586C56.6847 27.1532 56.6847 27.7477 56.6847 28.3423C56.6847 28.7387 56.6847 29.3333 56.4865 29.9279L53.9099 29.9279C53.9099 29.3333 53.9099 28.7387 53.9099 28.3423C53.9099 27.7477 53.9099 27.1532 53.7117 26.5586L56.4865 26.5586ZM55.6937 35.4775C55.4955 36.4685 55.0991 37.6577 54.7027 38.6486L52.1261 37.6577C52.5225 36.6667 52.7207 35.6757 53.1171 34.6847L55.6937 35.4775ZM52.1261 43.6036C51.5315 44.3964 50.9369 45.3874 50.1441 46.1802L47.964 44.5946C48.7568 43.8018 49.3513 42.8108 49.9459 42.018L52.1261 43.6036ZM46.1802 50.1441C45.3874 50.9369 44.3964 51.5315 43.6036 52.1261L42.018 49.9459C42.8108 49.3513 43.8018 48.7568 44.5946 47.964L46.1802 50.1441ZM38.6486 54.7027C37.6577 55.0991 36.4685 55.4955 35.4775 55.6937L34.6847 53.1171C35.6757 52.7207 36.6667 52.5225 37.8559 52.1261L38.6486 54.7027ZM29.9279 56.4865C29.3333 56.6847 28.7387 56.6847 28.3423 56.6847C27.7477 56.6847 27.1532 56.6847 26.5586 56.4865L26.5586 53.9099C27.1532 53.9099 27.7477 53.9099 28.3423 53.9099C28.7387 53.9099 29.3333 53.9099 29.9279 53.7117L29.9279 56.4865ZM21.2072 55.6937C20.018 55.4955 19.027 55.0991 18.036 54.7027L18.8288 52.1261C19.8198 52.5225 20.8108 52.7207 22 53.1171L21.2072 55.6937ZM13.0811 52.1261C12.0901 51.5315 11.0991 50.9369 10.3063 50.1441L11.8919 47.964C12.6847 48.7568 13.6757 49.3513 14.6667 49.9459L13.0811 52.1261ZM6.34234 46.1802C5.74775 45.3874 4.95495 44.5946 4.36036 43.6036L6.73874 42.018C7.33333 42.8108 7.92793 43.8018 8.52252 44.5946L6.34234 46.1802ZM1.98198 38.6486C1.38739 37.6577 1.18919 36.4685 0.792793 35.4775L3.56757 34.6847C3.76577 35.6757 4.16216 36.6667 4.55856 37.6577L1.98198 38.6486ZM0 29.9279C0 29.3333 0 28.9369 0 28.3423C0 27.7477 0 27.1532 0 26.5586L2.77477 26.5586C2.77477 27.1532 2.77477 27.7477 2.77477 28.3423C2.77477 28.9369 2.77477 29.3333 2.77477 29.9279L0 29.9279ZM0.792793 21.2072C1.18919 20.018 1.38739 19.027 1.98198 18.036L4.55856 18.8288C4.16216 19.8198 3.76577 20.8108 3.56757 22L0.792793 21.2072ZM4.36036 13.0811C4.95495 12.0901 5.74775 11.0991 6.34234 10.3063L8.52252 11.8919C7.92793 12.8829 7.13514 13.6757 6.54054 14.6667L4.36036 13.0811ZM10.3063 6.34234C11.0991 5.74775 12.0901 4.95495 13.0811 4.36036L14.6667 6.73874C13.6757 7.33333 12.6847 7.92793 11.8919 8.52252L10.3063 6.34234ZM17.8378 1.98198C19.027 1.58559 20.018 1.18919 21.009 0.792793L22 3.56757C20.8108 3.76577 19.8198 4.16216 18.8288 4.55856L17.8378 1.98198Z" id="Shape" fill="#086EA0" fill-rule="evenodd" stroke="none" />
      <path d="M26.3604 0L26.3604 3.76577C25.7658 3.56757 25.1712 3.56757 24.7748 3.56757C24.1802 3.56757 23.5856 3.56757 22.991 3.76577L22.991 0C23.5856 0 24.1802 0 24.7748 0C25.1712 0 25.7658 0 26.3604 0ZM29.5315 4.16216L30.7207 0.594595C31.9099 0.990991 32.9009 1.18919 33.8919 1.78378L32.7027 5.15315C31.7117 4.75676 30.7207 4.55856 29.5315 4.16216ZM35.6757 6.73874L37.8559 3.76577C38.8468 4.36036 39.6396 4.95496 40.6306 5.74775L38.4505 8.72072C37.4595 7.92793 36.6667 7.33333 35.6757 6.73874ZM40.6306 11.0991L43.8018 8.72072C44.3964 9.71171 44.991 10.5045 45.5856 11.4955L42.6126 13.6757C42.018 12.6847 41.4234 11.8919 40.6306 11.0991ZM44.1982 16.6486L47.7658 15.4595C48.1622 16.4505 48.5586 17.6396 48.7568 18.6306L45.1892 19.8198C44.991 18.6306 44.5946 17.6396 44.1982 16.6486ZM45.7838 22.991L49.3513 22.991C49.5495 23.5856 49.5495 24.1802 49.5495 24.7748C49.5495 25.1712 49.5495 25.7658 49.3513 26.3604L45.7838 26.3604C45.7838 25.7658 45.7838 25.1712 45.7838 24.7748C45.7838 24.1802 45.7838 23.5856 45.7838 22.991ZM45.1892 29.5315L48.7568 30.7207C48.5586 31.9099 48.1622 32.9009 47.7658 33.8919L44.1982 32.7027C44.5946 31.7117 44.991 30.7207 45.1892 29.5315ZM42.6126 35.6757L45.7838 37.8559C45.1892 38.8468 44.3964 39.6396 43.8018 40.6306L40.8288 38.4505C41.4234 37.4595 42.018 36.6667 42.6126 35.6757ZM38.4505 40.6306L40.6306 43.8018C39.8378 44.3964 38.8468 45.1892 37.8559 45.7838L35.6757 42.6126C36.6667 42.018 37.4595 41.4234 38.4505 40.6306ZM32.7027 44.1982L33.8919 47.7658C32.9009 48.1622 31.9099 48.5586 30.7207 48.7568L29.7297 45.1892C30.7207 44.991 31.7117 44.5946 32.7027 44.1982ZM26.3604 45.7838L26.3604 49.3513C25.7658 49.5495 25.1712 49.5495 24.7748 49.5495C24.1802 49.5495 23.5856 49.5495 22.991 49.3513L22.991 45.7838C23.5856 45.7838 24.1802 45.7838 24.7748 45.7838C25.1712 45.7838 25.7658 45.7838 26.3604 45.7838ZM19.8198 45.1892L18.6306 48.7568C17.6396 48.5586 16.4505 48.1622 15.4595 47.7658L16.6486 44.1982C17.6396 44.5946 18.6306 44.991 19.8198 45.1892ZM13.6757 42.6126L11.4955 45.7838C10.5045 45.1892 9.71171 44.3964 8.91892 43.8018L11.0991 40.6306C11.8919 41.4234 12.6847 42.018 13.6757 42.6126ZM8.72072 38.4505L5.74775 40.6306C4.95496 39.8378 4.36036 38.8468 3.76577 37.8559L6.73874 35.6757C7.33333 36.6667 7.92793 37.6577 8.72072 38.4505ZM5.15315 32.7027L1.78378 33.8919C1.38739 32.9009 0.990991 31.9099 0.594595 30.7207L4.16216 29.5315C4.55856 30.7207 4.75676 31.7117 5.15315 32.7027ZM3.76577 26.3604L0 26.3604C0 25.7658 0 25.3694 0 24.7748C0 24.1802 0 23.5856 0 22.991L3.76577 22.991C3.56757 23.5856 3.56757 24.1802 3.56757 24.7748C3.56757 25.3694 3.56757 25.7658 3.76577 26.3604ZM4.16216 19.8198L0.594595 18.6306C0.990991 17.6396 1.38739 16.4505 1.78378 15.4595L5.15315 16.6486C4.75676 17.6396 4.55856 18.6306 4.16216 19.8198ZM6.73874 13.6757L3.76577 11.4955C4.36036 10.5045 4.95496 9.71171 5.74775 8.91892L8.72072 11.0991C7.92793 11.8919 7.33333 12.6847 6.73874 13.6757ZM11.0991 8.72072L8.91892 5.74775C9.71171 4.95496 10.5045 4.36036 11.4955 3.76577L13.6757 6.73874C12.6847 7.33333 11.8919 7.92793 11.0991 8.72072ZM16.6486 5.35135L15.4595 1.78378C16.4505 1.38739 17.4414 0.990991 18.6306 0.594595L19.8198 4.16216C18.6306 4.55856 17.6396 4.75676 16.6486 5.35135Z" transform="translate(3.5675676 3.5675676)" id="Shape" fill="#000000" fill-rule="evenodd" stroke="none" />
      <path d="M19.2252 0L19.2252 4.36036L19.2252 4.36036C19.6216 4.36036 19.8198 4.36036 20.018 4.36036L21.4054 0.396396C22.3964 0.594595 23.5856 0.990991 24.5766 1.38739L23.1892 5.54955L23.1892 5.54955C23.5856 5.54955 23.7838 5.74775 23.982 5.94595L26.5586 2.37838C27.5496 2.97297 28.3423 3.56757 29.1351 4.36036L26.7568 7.92793L26.7568 7.92793C26.955 8.12613 27.1532 8.32432 27.3514 8.52252L30.7207 5.94595C31.5135 6.73874 32.1081 7.72973 32.7027 8.52252L29.3333 11.0991L29.3333 11.0991C29.3333 11.4955 29.5315 11.6937 29.7297 11.8919L33.6937 10.5045C34.0901 11.4955 34.4865 12.6847 34.6847 13.6757L30.7207 15.0631L30.7207 15.0631C30.7207 15.4595 30.7207 15.6577 30.9189 15.8559L35.0811 15.8559C35.0811 16.4505 35.0811 17.045 35.0811 17.6396C35.0811 18.036 35.0811 18.6306 35.0811 19.2252L30.7207 19.2252L30.7207 19.2252C30.7207 19.6216 30.7207 19.8198 30.7207 20.018L34.6847 21.4054C34.4865 22.5946 34.0901 23.5856 33.6937 24.5766L29.7297 23.1892L29.5315 23.3874C29.5315 23.5856 29.3333 23.7838 29.3333 23.982L32.7027 26.5586C32.1081 27.5496 31.5135 28.3423 30.7207 29.1351L27.3514 26.7568L27.3514 26.7568C27.1532 26.955 26.955 27.1532 26.7568 27.3514L29.1351 30.7207C28.3423 31.5135 27.5496 32.1081 26.5586 32.7027L23.982 29.3333L23.982 29.3333C23.7838 29.3333 23.5856 29.5315 23.1892 29.7297L24.5766 33.6937C23.5856 34.0901 22.5946 34.4865 21.4054 34.6847L20.018 30.7207L20.018 30.7207C19.8198 30.7207 19.4234 30.7207 19.2252 30.9189L19.2252 35.0811C18.6306 35.0811 18.036 35.0811 17.6396 35.0811C17.045 35.0811 16.4505 35.0811 15.8559 35.0811L15.8559 30.7207L15.8559 30.7207C15.6577 30.7207 15.2613 30.7207 15.0631 30.7207L13.6757 34.6847C12.6847 34.4865 11.6937 34.0901 10.5045 33.6937L11.8919 29.7297L11.8919 29.7297C11.6937 29.5315 11.2973 29.3333 11.0991 29.3333L8.52252 32.7027C7.72973 32.1081 6.73874 31.5135 5.94595 30.7207L8.52252 27.3514L8.32432 27.3514C8.12613 27.1532 7.92793 26.955 7.92793 26.7568L4.36036 29.1351C3.56757 28.3423 2.97297 27.5496 2.37838 26.5586L5.94595 23.982L5.94595 23.982C5.74775 23.7838 5.54955 23.5856 5.54955 23.1892L1.38739 24.5766C0.990991 23.5856 0.594595 22.5946 0.396396 21.4054L4.55856 20.018L4.36036 20.018C4.36036 19.8198 4.36036 19.4234 4.36036 19.2252L0 19.2252C0 18.6306 0 18.2342 0 17.6396C0 17.045 0 16.4505 0 15.8559L4.36036 15.8559L4.36036 15.8559C4.36036 15.6577 4.36036 15.2613 4.36036 15.0631L0.396396 13.6757C0.594595 12.6847 0.990991 11.4955 1.38739 10.5045L5.54955 11.8919L5.54955 11.8919C5.54955 11.6937 5.74775 11.2973 5.94595 11.0991L2.37838 8.72072C2.97297 7.72973 3.56757 6.73874 4.36036 5.94595L7.72973 8.52252L7.92793 8.32432C8.12613 8.12613 8.32432 7.92793 8.52252 7.72973L5.94595 4.36036C6.73874 3.56757 7.72973 2.97297 8.52252 2.37838L11.0991 5.94595L11.0991 5.94595C11.4955 5.74775 11.6937 5.54955 11.8919 5.54955L10.5045 1.38739C11.4955 0.990991 12.6847 0.594595 13.6757 0.396396L15.0631 4.55856L15.0631 4.36036C15.4595 4.36036 15.6577 4.36036 15.8559 4.36036L15.8559 0C16.4505 0 17.045 0 17.6396 0C18.036 0 18.6306 0 19.2252 0Z" transform="translate(10.7027025 10.7027025)" id="Path" fill="#67C7EC" fill-rule="evenodd" stroke="none" />
    </g>
  </g>
</svg>