<?xml version="1.0" encoding="utf-8"?>
<svg width="40px" height="34px" viewBox="0 0 40 34" version="1.1" xmlns:xlink="http://www.w3.org/1999/xlink" xmlns="http://www.w3.org/2000/svg">
  <desc>Created with Lunacy</desc>
  <path d="M35.2879 5.37527C36.983 4.31446 38.2837 2.63238 38.8942 0.628629C37.307 1.61332 35.5532 2.32544 33.682 2.71096C32.1888 1.04117 30.0546 0 27.6927 0C23.1614 0 19.4893 3.84299 19.4893 8.58226C19.4893 9.25509 19.5574 9.91073 19.6983 10.5369C12.8802 10.1784 6.83454 6.76513 2.78453 1.56912C2.07783 2.84111 1.674 4.31446 1.674 5.88603C1.674 8.8622 3.12262 11.4897 5.32488 13.0318C3.97957 12.9876 2.71409 12.5971 1.60592 11.9587L1.60592 12.0643C1.60592 16.224 4.43271 19.6938 8.19158 20.4796C7.50132 20.6809 6.77819 20.7816 6.02688 20.7816C5.49862 20.7816 4.9821 20.73 4.48436 20.6294C5.52679 24.0377 8.55785 26.5228 12.15 26.5891C9.33967 28.8924 5.80149 30.2626 1.95809 30.2626C1.296 30.2626 0.640958 30.2258 0 30.1447C3.63209 32.5782 7.94506 34 12.5797 34C27.6762 34 35.9265 20.9216 35.9265 9.57923C35.9265 9.20598 35.9218 8.83519 35.9054 8.46931C37.5089 7.2587 38.9036 5.74606 40 4.0247C38.5279 4.70735 36.9455 5.169 35.2879 5.37527Z" id="Shape" fill="#48BAE6" fill-rule="evenodd" stroke="none" />
</svg>