<?xml version="1.0" encoding="utf-8"?>
<svg width="40px" height="40px" viewBox="0 0 40 40" version="1.1" xmlns:xlink="http://www.w3.org/1999/xlink" xmlns="http://www.w3.org/2000/svg">
  <desc>Created with Lunacy</desc>
  <path d="M1.00894 12.8262L8.80527 12.8262L8.80527 39.9974L1.00894 39.9974L1.00894 12.8262ZM4.70837 9.42758L4.65193 9.42758C1.82973 9.42758 -3.55271e-15 7.35049 -3.55271e-15 4.72019C-3.55271e-15 2.03611 1.88382 0 4.76246 0C7.63876 0 9.40734 2.03099 9.46378 4.71251C9.46378 7.34281 7.63876 9.42758 4.70837 9.42758L4.70837 9.42758ZM40 40L31.1595 40L31.1595 25.9367C31.1595 22.2564 29.7766 19.7464 26.7357 19.7464C24.4097 19.7464 23.1162 21.4394 22.5141 23.0759C22.2883 23.6599 22.3236 24.4769 22.3236 25.2965L22.3236 40L13.5654 40C13.5654 40 13.6783 15.0903 13.5654 12.8262L22.3236 12.8262L22.3236 17.0905C22.841 15.226 25.6397 12.565 30.1058 12.565C35.6468 12.565 40 16.4759 40 24.8892L40 40L40 40Z" id="Shape" fill="#48BAE6" fill-rule="evenodd" stroke="none" />
</svg>