<?xml version="1.0" encoding="utf-8"?>
<svg width="212px" height="222px" viewBox="0 0 212 222" version="1.1" xmlns:xlink="http://www.w3.org/1999/xlink" xmlns="http://www.w3.org/2000/svg">
  <desc>Created with Lunacy</desc>
  <g id="noun_Logo_2372944">
    <path d="M106.306 0L158.559 91.8919L211.712 182.883L178.378 182.883L158.559 150.45L106.306 58.5586L53.1532 150.45L34.2342 182.883L0 182.883L53.1532 91.8919L106.306 0Z" id="Path" fill="#67C7EC" fill-rule="evenodd" stroke="none" />
    <path d="M82.8829 0L123.423 72.0721L164.865 143.243L82.8829 143.243L0 143.243L41.4414 72.0721L82.8829 0ZM82.8829 23.4234L51.3514 77.4775L19.8198 131.532L145.045 131.532L113.514 77.4775L82.8829 23.4234Z" transform="translate(23.42334 78.37793)" id="Shape" fill="#000000" fill-rule="evenodd" stroke="none" />
    <path d="M47.7478 0L0 81.982L94.5946 81.982L47.7478 0Z" transform="translate(58.558594 118.918945)" id="Path" fill="#C12A19" fill-rule="evenodd" stroke="none" />
  </g>
</svg>